<svg version="1.1" id="Layer_1" xmlns="http://www.w3.org/2000/svg" xmlns:xlink="http://www.w3.org/1999/xlink" x="0px" y="0px"
	 width="100%" viewBox="0 0 750 750" enable-background="new 0 0 750 750" xml:space="preserve">
<path fill="#000000" opacity="1.000000" stroke="none" 
	d="
M441.000000,751.000000 
	C294.000000,751.000000 147.500000,751.000000 1.000000,751.000000 
	C1.000000,501.000000 1.000000,251.000000 1.000000,1.000000 
	C251.000000,1.000000 501.000000,1.000000 751.000000,1.000000 
	C751.000000,251.000000 751.000000,501.000000 751.000000,751.000000 
	C647.833313,751.000000 544.666687,751.000000 441.000000,751.000000 
M612.574890,275.585724 
	C612.081909,275.313293 611.588928,275.040863 610.829468,274.394348 
	C610.592163,274.170319 610.310669,274.068878 609.594971,273.511261 
	C602.726562,269.972900 598.705261,271.419647 594.155029,279.306824 
	C593.146606,281.861176 592.138184,284.415527 590.656006,287.558380 
	C589.721497,290.613220 588.786926,293.668091 587.312134,296.999359 
	C586.952087,297.694153 586.592041,298.388916 585.802246,299.499725 
	C585.473145,300.217743 585.144043,300.935760 584.250244,301.976990 
	C583.224548,303.340240 582.198853,304.703461 580.600464,306.417267 
	C578.419861,308.660004 576.239319,310.902740 573.497498,313.269073 
	C569.312927,317.809967 574.664612,316.366180 576.569031,317.789001 
	C577.156433,317.993958 577.743774,318.198883 578.752930,318.931091 
	C580.521179,319.905243 582.289490,320.879395 584.386536,322.380951 
	C585.038879,322.863983 585.691223,323.347015 586.575562,324.362427 
	C587.132996,324.889038 587.690430,325.415649 588.349182,326.583740 
	C590.174316,328.574219 591.999451,330.564667 594.150818,332.910980 
	C595.509583,330.925537 596.527283,329.803223 597.136414,328.491211 
	C602.573975,316.779053 608.240662,305.157623 613.159241,293.228851 
	C614.827087,289.183716 614.552307,284.337585 615.146912,279.256927 
	C614.860779,278.744995 614.574646,278.233093 614.116333,277.199615 
	C613.695312,276.884216 613.274292,276.568848 612.854736,276.143341 
	C612.854736,276.143341 612.744568,276.144226 612.574890,275.585724 
M652.779053,478.593292 
	C652.779053,478.593292 652.508118,478.513245 652.599060,477.564026 
	C652.111816,473.886292 651.624573,470.208557 651.264893,466.685730 
	C651.264893,466.685730 651.389099,466.236847 651.389099,466.236847 
	C651.389099,466.236847 651.109131,465.997559 651.079285,464.815155 
	C651.079529,463.635254 651.079773,462.455322 651.409485,461.163116 
	C651.189575,460.560547 650.969666,459.957977 650.586853,458.323181 
	C650.448059,457.640503 650.309204,456.957825 650.493225,456.147003 
	C650.256897,455.555328 650.020508,454.963623 649.530823,453.374390 
	C649.344238,452.714142 649.157654,452.053894 649.275879,451.387512 
	C649.067078,451.057953 648.858276,450.728394 648.318298,449.558838 
	C647.634521,448.220062 646.950745,446.881287 646.509338,445.293121 
	C646.231628,445.012909 645.953857,444.732727 645.302673,443.753357 
	C638.965088,434.741699 632.627441,425.730011 626.247070,416.115051 
	C623.178467,411.403595 620.109802,406.692139 616.844971,401.289246 
	C614.153931,394.243988 611.442139,387.206543 608.779602,380.150513 
	C607.149536,375.830719 605.595154,371.482391 604.098633,366.480591 
	C603.614258,364.579742 603.425171,362.538727 602.599792,360.799713 
	C594.277100,343.265137 582.311462,329.368500 564.094727,321.329834 
	C543.555908,312.266510 522.216736,307.226379 498.884003,306.764008 
	C471.727966,305.830383 445.910706,311.176392 421.680023,323.560638 
	C410.540161,329.254181 400.211060,336.158813 391.190277,345.805359 
	C386.764954,349.871246 382.339630,353.937103 376.998627,358.844299 
	C379.470001,359.386169 380.644653,359.643707 382.368683,360.393005 
	C383.548492,360.667023 384.728333,360.941040 386.042236,361.467804 
	C386.042236,361.467804 386.320862,361.402863 386.708832,361.880035 
	C387.472382,362.118530 388.235901,362.357025 389.585663,363.011993 
	C391.532288,363.847229 393.478882,364.682465 395.878448,366.023468 
	C399.931305,367.948669 403.984161,369.873901 408.306091,372.105560 
	C408.306091,372.105560 408.690918,372.240631 408.946716,372.831177 
	C410.319885,373.826508 411.693054,374.821808 413.416199,376.353729 
	C414.376556,377.199432 415.336884,378.045135 416.450134,379.647095 
	C416.050995,381.238617 416.077332,383.772491 415.148895,384.191620 
	C413.886261,384.761658 411.442932,384.252411 410.285370,383.279083 
	C400.009735,374.638367 387.597687,370.778625 374.937469,368.064362 
	C364.423340,365.810150 354.214508,363.501831 345.547211,355.483551 
	C344.724457,355.138519 343.901703,354.793518 343.026855,354.335480 
	C343.026855,354.335480 342.905853,354.364655 342.965424,353.648193 
	C340.997528,352.049133 339.029633,350.450073 336.731628,348.267975 
	C329.671234,342.495850 321.630951,339.964813 312.552582,341.180969 
	C305.167877,342.170227 299.099243,345.519348 296.095428,352.571106 
	C291.595337,363.135498 292.837799,373.055664 300.680023,381.820862 
	C305.622253,387.344727 311.789337,390.709442 318.951599,392.432709 
	C326.956879,394.358765 333.971039,397.714600 340.485809,403.235931 
	C348.475586,410.007263 356.587097,417.426544 368.080414,418.269226 
	C370.948883,418.479523 372.657532,420.435364 372.070374,423.480164 
	C371.457764,426.657104 369.514557,428.458923 366.049561,428.064026 
	C363.251129,427.745117 360.454376,427.411285 357.225372,426.696960 
	C356.037750,426.394440 354.850128,426.091919 353.217285,425.675964 
	C352.057220,434.094574 350.492310,441.921143 350.003601,449.814362 
	C349.246307,462.045837 349.193481,474.322083 348.906982,486.580872 
	C348.822327,490.203369 348.956696,493.831024 348.721313,498.455719 
	C349.232971,501.487671 349.744629,504.519653 350.156342,507.832428 
	C350.310577,508.243103 350.464844,508.653748 350.947327,510.777252 
	C351.046600,511.350037 351.145874,511.922821 351.406189,512.300964 
	C351.387238,512.353455 351.368286,512.405884 351.676697,513.359863 
	C351.851715,513.627380 352.026703,513.894958 352.181885,514.929443 
	C354.568665,521.070374 356.955444,527.211243 359.479950,534.186340 
	C363.314453,542.125183 367.097107,550.060669 374.502380,555.545959 
	C375.863983,556.554565 376.865479,558.450745 377.337219,560.132446 
	C377.716919,561.485962 377.523438,564.022278 376.730804,564.449158 
	C375.463196,565.131897 373.135284,565.071533 371.890167,564.300537 
	C369.686310,562.935974 367.959076,560.801636 365.892029,558.481934 
	C365.603943,558.297363 365.315857,558.112793 365.007172,557.992859 
	C365.007172,557.992859 365.058624,557.948730 364.817230,557.320618 
	C362.067505,554.120422 359.317810,550.920166 356.355682,547.026672 
	C347.374146,529.960571 340.809631,512.050964 339.688293,492.684967 
	C339.057495,481.790710 339.924133,470.809784 340.405823,459.250916 
	C341.156281,456.503723 340.325378,455.058197 337.266266,455.370361 
	C333.634674,455.740936 329.964844,455.865173 326.371094,456.457336 
	C302.484924,460.393005 278.614716,464.425293 253.862152,468.179779 
	C252.950119,468.293549 252.038086,468.407349 250.375809,468.675873 
	C241.680847,468.247589 232.985870,467.819275 223.524872,467.052338 
	C214.711441,465.497406 205.898026,463.942474 196.287933,462.174744 
	C190.496124,461.449371 184.704300,460.723969 178.176132,459.629608 
	C177.090530,459.527374 176.004944,459.425171 174.634918,459.007263 
	C174.102478,459.033295 173.570023,459.059357 172.406631,458.757812 
	C171.241043,458.618195 170.075470,458.478577 168.648453,458.008453 
	C168.109619,458.024353 167.570801,458.040283 166.517838,457.726501 
	C165.918625,457.684631 165.319397,457.642792 164.274078,457.201630 
	C163.499191,457.154388 162.724289,457.107117 161.177490,456.673126 
	C156.080399,455.597595 150.983307,454.522095 145.635071,453.106812 
	C145.101578,453.099579 144.568100,453.092316 143.533966,452.782440 
	C143.151733,452.805054 142.769485,452.827637 141.800766,452.436310 
	C140.864197,452.358154 139.927628,452.279999 138.294571,451.886993 
	C127.161865,450.956512 116.029152,450.026001 104.121284,448.813507 
	C97.190964,448.597290 90.260643,448.381073 82.637032,448.072693 
	C80.487953,448.457275 78.338875,448.841888 75.472054,449.127960 
	C74.471428,449.679352 73.144257,449.987274 72.522514,450.821198 
	C68.037163,456.837158 65.303291,462.979614 66.815521,471.154144 
	C69.105156,483.531006 71.306938,496.183838 71.163437,508.692078 
	C70.930038,529.037476 72.131805,548.786194 79.379219,568.105957 
	C83.040802,577.866821 87.985992,586.560547 94.920021,594.006165 
	C103.759979,603.498230 112.895157,612.787659 122.590454,621.389771 
	C131.637314,629.416504 140.715576,638.119202 151.303497,643.559143 
	C178.712799,657.641846 207.869431,664.103882 238.831680,657.259216 
	C240.773987,656.829773 242.796188,656.501953 244.774460,656.534607 
	C267.574677,656.911499 290.384766,657.062317 313.169403,657.896301 
	C332.287994,658.596130 350.057434,663.300781 365.883667,675.231140 
	C374.708191,681.883301 385.734467,682.896790 396.982086,680.960022 
	C406.121490,679.386230 415.462555,678.228394 424.715576,678.218567 
	C447.709747,678.194153 470.608032,678.100037 493.550171,675.393860 
	C507.826080,673.709900 522.445435,674.937866 536.265686,675.290222 
	C536.115845,675.141479 535.966003,674.992798 535.816162,674.844116 
	C535.954712,674.773376 536.107910,674.621521 536.229736,674.643555 
	C542.274719,675.735229 548.405640,676.495422 554.342468,678.013855 
	C570.137573,682.053894 583.835144,678.691895 595.592407,667.337036 
	C598.575989,664.455505 601.993774,662.009766 604.868347,659.031921 
	C613.376099,650.218201 621.712097,641.238708 630.862610,632.092651 
	C633.044495,629.613464 635.353760,627.234070 637.386169,624.637878 
	C646.133911,613.463257 654.928162,602.320190 663.408447,590.944336 
	C665.592041,588.015137 666.694702,584.280029 668.762512,580.484741 
	C669.216370,577.729126 670.286072,574.912720 670.021301,572.227966 
	C668.607422,557.894531 658.492004,549.377441 648.139099,540.266968 
	C646.328918,540.144043 643.906067,539.219666 642.822876,540.047729 
	C639.498840,542.588867 636.688354,545.801758 633.300964,548.911621 
	C633.300964,548.911621 633.048401,549.233398 632.379944,549.326904 
	C629.834778,551.152161 627.289551,552.977356 624.341309,554.910095 
	C624.341309,554.910095 624.039001,555.197632 623.326233,555.227112 
	C616.692810,558.653687 610.059326,562.080200 602.815186,565.677246 
	C602.246399,565.952454 601.677673,566.227661 600.329834,566.492920 
	C594.269104,567.593384 593.262451,566.898376 593.890869,561.581055 
	C593.890869,561.581055 594.041748,561.191650 594.760071,561.140991 
	C595.821838,560.602905 596.883545,560.064880 598.552856,559.519348 
	C599.234314,559.106506 599.915710,558.693665 601.278137,558.179993 
	C606.836182,555.323303 612.394165,552.466675 618.530762,549.567505 
	C619.112000,549.088440 619.693237,548.609375 620.686340,548.031433 
	C620.686340,548.031433 620.963135,547.710754 621.543152,547.640076 
	C622.101196,547.128357 622.659241,546.616638 623.752869,545.947632 
	C624.145752,545.563904 624.538696,545.180176 625.512207,544.705383 
	C626.027222,544.147278 626.542236,543.589111 627.676758,542.797424 
	C630.458862,539.879517 633.241028,536.961548 636.577087,533.842896 
	C636.971680,533.195435 637.366272,532.548035 637.900513,531.886902 
	C637.900513,531.886902 637.883240,531.747681 638.461487,531.511169 
	C639.502319,529.989014 640.543091,528.466919 641.960144,526.679016 
	C641.960144,526.679016 642.116272,526.245605 642.663879,526.004883 
	C643.017883,525.324951 643.371826,524.645081 644.035217,523.678650 
	C644.035217,523.678650 644.126709,523.267090 644.715881,522.918457 
	C647.147644,513.822327 649.579407,504.726135 652.245483,494.949310 
	C652.278198,492.087524 652.310913,489.225739 652.644714,485.785858 
	C652.509766,485.202271 652.374817,484.618713 652.334412,483.214050 
	C652.360840,482.663788 652.387329,482.113556 652.837585,481.001831 
	C652.788452,480.288391 652.739319,479.574921 652.779053,478.593292 
M250.319580,461.348511 
	C251.894302,461.224884 253.469009,461.101227 255.043732,460.977600 
	C255.035156,460.459381 255.026566,459.941193 255.017990,459.423004 
	C253.194992,459.311157 251.371979,459.199341 248.681564,459.153473 
	C244.599701,459.170746 240.517838,459.188019 235.697784,458.981598 
	C220.510071,456.808350 205.322372,454.635101 190.134659,452.461853 
	C190.078995,452.898712 190.023331,453.335571 189.967682,453.772430 
	C199.386826,455.682617 208.764328,457.844421 218.240021,459.413055 
	C224.376236,460.428864 230.656006,460.577606 237.636856,461.098877 
	C241.665787,461.050751 245.694733,461.002655 250.319580,461.348511 
M298.873657,452.143646 
	C295.381714,453.070709 291.889771,453.997772 288.397827,454.924866 
	C288.552643,455.541626 288.707458,456.158386 288.862244,456.775177 
	C294.733154,455.590942 300.604034,454.406738 306.474945,453.222504 
	C306.406555,452.703857 306.338165,452.185211 306.269775,451.666565 
	C304.053558,451.791656 301.837341,451.916718 298.873657,452.143646 
z"/>
<path fill="#E2BD25" opacity="1.000000" stroke="none" 
	d="
M633.048401,549.233398 
	C633.048401,549.233398 633.300964,548.911621 633.851318,548.833069 
	C635.137451,548.390686 636.027771,548.184143 636.583740,547.637512 
	C640.108459,544.171753 643.231689,544.654724 646.207947,548.366272 
	C646.704895,548.985962 647.528931,549.343384 648.301514,550.157959 
	C649.244873,552.115540 649.956726,553.823853 650.955444,555.343567 
	C654.895447,561.338501 656.473511,567.871277 657.212952,575.035095 
	C658.047302,583.118286 654.501038,588.535461 649.446960,593.902039 
	C638.304077,605.733948 628.036560,618.451721 613.465088,626.577637 
	C611.367920,627.747131 610.018311,630.734924 608.961060,633.159607 
	C607.860596,635.683105 607.243530,638.240662 603.201416,638.827271 
	C604.139954,636.191040 604.755432,634.462158 605.768005,631.617920 
	C603.215149,632.659485 601.709778,633.192627 600.273865,633.872437 
	C588.789307,639.309509 577.032227,642.978394 564.088562,640.121460 
	C560.604919,639.352478 556.976074,638.476685 553.486206,638.714111 
	C549.960693,638.953918 546.569397,640.728394 543.042175,641.457947 
	C529.754639,644.206604 517.302979,650.384277 503.476532,651.024597 
	C501.982391,651.093750 500.006012,652.589478 499.207458,653.973938 
	C492.540985,665.531433 481.418671,668.507568 469.916077,666.526001 
	C454.241638,663.825806 438.885315,659.092834 423.549744,654.684631 
	C415.000916,652.227234 406.760406,648.688843 398.410217,645.559509 
	C397.406067,645.183228 396.121490,644.514343 395.753021,643.647034 
	C392.703094,636.467834 389.263275,635.005310 381.762146,636.791016 
	C377.532013,637.797974 372.983917,638.170105 368.643341,637.876709 
	C357.164886,637.100830 345.784119,635.757080 335.834961,628.959900 
	C332.472382,626.662720 328.750916,624.550415 324.881927,623.418274 
	C319.648895,621.887024 314.145447,620.930908 308.702271,620.570557 
	C303.804871,620.246277 298.820068,620.934448 293.896973,621.413757 
	C290.646667,621.730286 287.437286,622.467285 283.743042,623.017334 
	C276.917786,622.983032 270.559052,622.947266 263.803131,622.795166 
	C258.022461,623.212341 252.639008,623.745911 246.907974,624.313904 
	C247.402878,620.349182 244.745285,620.100586 241.407516,619.887695 
	C234.780579,619.464966 228.151382,618.756836 221.593689,617.720215 
	C218.802612,617.278992 217.293152,617.854553 216.005005,620.296265 
	C214.051636,623.998901 210.985672,624.650940 207.113708,623.233276 
	C202.586655,621.575745 197.917099,620.311157 193.365326,618.716309 
	C181.789734,614.660461 170.232605,610.550964 158.692429,606.395264 
	C149.389450,603.045288 141.117599,597.963196 135.890152,589.431030 
	C131.556351,582.357483 128.323181,574.615417 124.490578,567.227539 
	C119.667976,557.931335 114.701187,548.709961 109.862137,539.422180 
	C108.343666,536.507690 106.534904,533.613647 105.720245,530.485962 
	C102.284813,517.296631 99.585106,503.904022 95.807327,490.819336 
	C93.098732,481.437866 89.107040,472.426880 85.667320,463.195679 
	C86.652824,462.161591 88.206085,461.264679 88.557823,460.026459 
	C89.653252,456.170258 92.527519,455.842682 95.624702,456.021698 
	C104.899422,456.557800 114.161926,457.317474 123.439636,457.780548 
	C125.654762,457.891083 127.910553,457.186676 130.505554,456.958679 
	C141.247101,459.020813 151.630722,460.981354 162.180084,463.155457 
	C162.845383,463.552704 163.344925,463.736359 164.198349,464.054413 
	C172.124588,465.982788 179.650833,468.010254 187.279938,469.516846 
	C199.170471,471.865021 211.074036,474.289764 223.078644,475.875061 
	C233.645721,477.270508 244.381744,475.570312 254.997604,478.889008 
	C267.949585,482.938049 281.429321,485.271332 294.538055,488.867157 
	C297.564270,489.697235 300.697662,492.135223 302.594147,494.708527 
	C308.198822,502.313416 313.133850,510.408142 318.496246,518.197388 
	C320.173767,520.634155 320.608368,522.481384 319.037964,525.367737 
	C317.435974,528.312195 315.919678,532.114929 316.407562,535.221191 
	C317.534363,542.395691 319.164948,549.695129 322.047729,556.309082 
	C323.636688,559.954590 327.730865,563.835571 331.474823,564.919800 
	C337.949371,566.794922 342.330231,570.301697 345.770599,575.657410 
	C351.134857,584.008118 359.856903,587.837769 368.563995,590.553528 
	C377.415405,593.314331 386.689301,592.385925 395.082764,587.372803 
	C396.291473,586.650818 397.921356,586.124573 399.284027,586.256226 
	C406.058594,586.911133 413.014099,587.050171 419.525208,588.793091 
	C433.160828,592.443054 446.525421,597.094482 460.074677,601.085449 
	C463.673798,602.145630 467.538300,602.747131 471.282654,602.755188 
	C475.539703,602.764343 479.146484,599.990906 479.232300,595.979980 
	C479.278992,593.798462 475.926544,590.957153 473.471802,589.445190 
	C469.685547,587.113037 464.969757,586.229614 461.322937,583.742432 
	C448.567444,575.043030 435.995056,566.063293 423.572906,556.892395 
	C417.995972,552.775024 415.600372,546.796570 416.476562,539.816406 
	C433.653046,542.990906 447.194397,529.108704 443.692596,512.360779 
	C441.984497,504.191498 438.125549,500.677277 429.889801,499.814880 
	C427.249146,499.538361 424.604767,499.297363 421.957703,498.594727 
	C423.653625,486.431061 423.690369,474.463562 418.512360,463.886749 
	C411.756561,450.086975 403.178894,437.180115 395.418396,423.869690 
	C394.623535,422.506409 393.472534,421.008514 393.478149,419.576965 
	C393.511780,411.007690 386.299591,400.120087 377.966034,396.552979 
	C373.073730,394.458862 368.373230,391.692261 363.292236,390.308777 
	C351.819305,387.184875 340.287109,383.483795 328.550964,382.322876 
	C313.961578,380.879700 302.654022,370.886108 302.302368,355.821594 
	C303.053619,354.818939 303.501709,353.917053 304.321625,352.941284 
	C308.822601,351.885468 312.951721,350.903564 317.403870,350.146667 
	C321.468842,350.870117 325.210785,351.368500 329.339478,351.893860 
	C330.500916,351.946808 331.275665,351.972778 332.145203,352.308746 
	C333.990173,354.016571 335.740356,355.414368 337.607666,357.237976 
	C337.687195,358.247955 337.649628,358.832123 337.591858,359.528107 
	C337.671844,359.965210 337.772064,360.290527 338.106995,360.990295 
	C339.884766,368.066956 342.462555,372.732300 350.229523,375.310272 
	C363.265717,379.637207 375.544983,386.236847 388.166199,391.827240 
	C391.371155,393.246796 394.502533,393.598267 397.487244,390.992767 
	C400.642242,388.238617 400.069183,385.192291 399.050598,381.965057 
	C401.645233,383.061157 403.734680,384.562042 406.050476,385.115112 
	C409.078430,385.838226 412.471161,386.595612 415.368073,385.908783 
	C418.961151,385.056946 419.114410,381.944977 416.297211,378.890869 
	C415.336884,378.045135 414.376556,377.199432 413.183472,375.751038 
	C411.530792,374.179077 410.110840,373.209869 408.690918,372.240631 
	C408.690918,372.240631 408.306091,372.105560 408.075989,371.634918 
	C403.705780,369.282104 399.565643,367.399933 395.425507,365.517731 
	C393.478882,364.682465 391.532288,363.847229 389.137115,362.522461 
	C387.899323,361.822876 387.110107,361.612885 386.320862,361.402863 
	C386.320862,361.402863 386.042236,361.467804 386.065613,360.993408 
	C387.157135,359.066711 387.983917,357.320770 389.333649,356.210815 
	C396.761963,350.102051 403.928711,343.561676 411.912750,338.266327 
	C427.854431,327.693115 445.969635,321.932007 464.377655,317.607361 
	C474.149200,315.311737 484.527161,313.641632 494.439087,314.356110 
	C509.432465,315.436829 524.351013,318.395325 539.117737,321.445099 
	C547.153198,323.104614 555.461609,325.486877 562.451538,329.583069 
	C569.274414,333.581421 574.338989,340.466553 580.595886,345.568756 
	C592.851257,355.562347 597.541870,369.828552 603.052734,383.707794 
	C605.927490,390.947876 608.262268,398.534821 612.133240,405.216400 
	C618.195862,415.680817 625.353577,425.510803 631.785156,435.852692 
	C623.770630,440.518829 621.786865,448.488342 620.090271,456.161133 
	C618.981689,461.174805 619.948730,466.784973 624.668823,470.104309 
	C631.035767,474.581787 637.878418,478.040161 645.916626,474.199921 
	C645.636475,489.522827 644.256348,504.117279 637.955322,517.901611 
	C632.585022,529.649780 623.444092,538.037415 613.660461,545.759460 
	C608.241516,550.036560 601.953979,553.199402 596.228943,557.114441 
	C595.098877,557.887268 594.750549,559.802979 594.041748,561.191650 
	C594.041748,561.191650 593.890869,561.581055 593.418335,561.720947 
	C592.276001,562.549927 591.606201,563.238953 590.673462,564.043701 
	C588.890991,567.968079 592.031189,567.431396 594.291504,568.162537 
	C596.765503,567.719604 598.937195,567.111206 601.108887,566.502808 
	C601.677673,566.227661 602.246399,565.952454 603.505615,565.655396 
	C610.810425,562.154907 617.424683,558.676270 624.039001,555.197632 
	C624.039001,555.197632 624.341309,554.910095 624.906067,554.874146 
	C627.996704,552.969910 630.522522,551.101624 633.048401,549.233398 
M560.071655,346.378754 
	C552.570679,341.136078 544.006470,341.139740 537.514282,346.388397 
	C533.528625,349.610657 532.318054,355.780701 535.075867,358.306488 
	C539.472717,362.333282 543.628235,366.636871 548.171021,370.486938 
	C552.459167,374.121124 557.066101,377.389923 561.648560,380.657104 
	C562.625488,381.353668 564.479553,382.015076 565.284180,381.557617 
	C569.446777,379.190796 573.595093,376.704529 577.355286,373.758240 
	C579.745239,371.885590 579.273071,369.832672 576.622803,367.697937 
	C573.903381,365.507446 571.799438,362.483887 569.676208,359.638336 
	C566.551514,355.450562 563.648621,351.097260 560.071655,346.378754 
M472.110901,475.604523 
	C472.842560,465.719727 472.445190,455.906036 467.953583,446.884796 
	C466.260559,443.484436 463.453369,440.454803 460.595551,437.874908 
	C458.177673,435.692230 453.261688,437.266357 452.072418,439.977112 
	C445.942261,453.949677 449.007477,467.156433 455.274628,480.163635 
	C457.864594,485.538910 462.026794,484.683655 466.711182,483.964020 
	C471.505554,483.227478 471.952911,480.155884 472.110901,475.604523 
M579.055664,441.225586 
	C580.952271,445.229645 584.277710,448.111145 588.459778,446.942200 
	C590.768860,446.296753 593.794312,442.471252 593.744751,440.137787 
	C593.544922,430.733154 592.473694,421.325867 591.287903,411.974945 
	C590.878296,408.744995 588.625549,405.463745 584.964050,406.209412 
	C582.296509,406.752655 579.675964,409.061005 577.760803,411.225128 
	C576.483521,412.668427 575.847168,415.298035 576.023987,417.299530 
	C576.709351,425.053711 577.835571,432.768921 579.055664,441.225586 
M571.318542,514.800842 
	C574.326050,512.208984 577.743530,509.940186 580.155762,506.879242 
	C581.246948,505.494659 581.262756,501.660980 580.141724,500.478058 
	C578.007324,498.225922 575.942444,500.274414 573.975769,502.209656 
	C570.949158,505.187958 567.783752,508.417938 564.039490,510.204956 
	C549.252319,517.262451 533.546021,519.361511 517.291138,517.413757 
	C515.640930,517.216003 513.882446,516.581970 512.372437,516.954285 
	C511.030212,517.285278 509.172791,518.606079 508.993378,519.723022 
	C508.807465,520.880249 510.152435,522.547791 511.235382,523.553101 
	C511.980103,524.244446 513.405334,524.303162 514.551208,524.447083 
	C534.179993,526.912964 553.102234,525.060303 571.318542,514.800842 
M509.437408,364.591553 
	C509.815613,368.939331 512.679932,371.048950 516.455505,370.161652 
	C518.538269,369.672180 520.041992,366.718811 521.806763,364.876251 
	C519.567932,363.002930 517.560059,360.344055 514.992432,359.589294 
	C513.718018,359.214722 511.415283,362.338654 509.437408,364.591553 
M142.481735,499.035492 
	C139.712708,498.693420 136.943665,498.351349 134.174637,498.009277 
	C134.140167,498.556946 134.105698,499.104614 134.071243,499.652313 
	C136.926956,501.148346 139.799713,502.070770 142.481735,499.035492 
M165.877426,516.660400 
	C165.704086,514.642517 165.530762,512.624634 165.357422,510.606781 
	C162.169357,515.236755 162.580139,517.119202 165.877426,516.660400 
z"/>
<path fill="#DA9816" opacity="1.000000" stroke="none" 
	d="
M130.147644,456.857086 
	C127.910553,457.186676 125.654762,457.891083 123.439636,457.780548 
	C114.161926,457.317474 104.899422,456.557800 95.624702,456.021698 
	C92.527519,455.842682 89.653252,456.170258 88.557823,460.026459 
	C88.206085,461.264679 86.652824,462.161591 85.667320,463.195679 
	C89.107040,472.426880 93.098732,481.437866 95.807327,490.819336 
	C99.585106,503.904022 102.284813,517.296631 105.720245,530.485962 
	C106.534904,533.613647 108.343666,536.507690 109.862137,539.422180 
	C114.701187,548.709961 119.667976,557.931335 124.490578,567.227539 
	C128.323181,574.615417 131.556351,582.357483 135.890152,589.431030 
	C141.117599,597.963196 149.389450,603.045288 158.692429,606.395264 
	C170.232605,610.550964 181.789734,614.660461 193.365326,618.716309 
	C197.917099,620.311157 202.586655,621.575745 207.113708,623.233276 
	C210.985672,624.650940 214.051636,623.998901 216.005005,620.296265 
	C217.293152,617.854553 218.802612,617.278992 221.593689,617.720215 
	C228.151382,618.756836 234.780579,619.464966 241.407516,619.887695 
	C244.745285,620.100586 247.402878,620.349182 246.907974,624.313904 
	C252.639008,623.745911 258.022461,623.212341 264.109314,622.963745 
	C266.657654,623.947815 268.606842,624.453186 270.328705,625.380676 
	C276.549072,628.731323 278.681458,628.421692 284.209595,623.015991 
	C287.437286,622.467285 290.646667,621.730286 293.896973,621.413757 
	C298.820068,620.934448 303.804871,620.246277 308.702271,620.570557 
	C314.145447,620.930908 319.648895,621.887024 324.881927,623.418274 
	C328.750916,624.550415 332.472382,626.662720 335.834961,628.959900 
	C345.784119,635.757080 357.164886,637.100830 368.643341,637.876709 
	C372.983917,638.170105 377.532013,637.797974 381.762146,636.791016 
	C389.263275,635.005310 392.703094,636.467834 395.753021,643.647034 
	C396.121490,644.514343 397.406067,645.183228 398.410217,645.559509 
	C406.760406,648.688843 415.000916,652.227234 423.549744,654.684631 
	C438.885315,659.092834 454.241638,663.825806 469.916077,666.526001 
	C481.418671,668.507568 492.540985,665.531433 499.207458,653.973938 
	C500.006012,652.589478 501.982391,651.093750 503.476532,651.024597 
	C517.302979,650.384277 529.754639,644.206604 543.042175,641.457947 
	C546.569397,640.728394 549.960693,638.953918 553.486206,638.714111 
	C556.976074,638.476685 560.604919,639.352478 564.088562,640.121460 
	C577.032227,642.978394 588.789307,639.309509 600.273865,633.872437 
	C601.709778,633.192627 603.215149,632.659485 605.768005,631.617920 
	C604.755432,634.462158 604.139954,636.191040 603.201416,638.827271 
	C607.243530,638.240662 607.860596,635.683105 608.961060,633.159607 
	C610.018311,630.734924 611.367920,627.747131 613.465088,626.577637 
	C628.036560,618.451721 638.304077,605.733948 649.446960,593.902039 
	C654.501038,588.535461 658.047302,583.118286 657.212952,575.035095 
	C656.473511,567.871277 654.895447,561.338501 650.955444,555.343567 
	C649.956726,553.823853 649.244873,552.115540 648.557068,550.165894 
	C649.056396,549.826416 649.399780,549.815002 650.071655,549.943848 
	C658.821594,556.302979 665.388855,563.683655 666.442688,574.748840 
	C666.642212,576.844055 667.655884,578.861694 668.293884,580.915161 
	C666.694702,584.280029 665.592041,588.015137 663.408447,590.944336 
	C654.928162,602.320190 646.133911,613.463257 637.386169,624.637878 
	C635.353760,627.234070 633.044495,629.613464 630.126465,632.213318 
	C626.931885,632.916199 623.791321,632.731018 622.128723,634.208801 
	C613.193237,642.151001 604.345276,650.233582 596.000549,658.788147 
	C585.311707,669.745850 572.336487,673.574097 557.502258,673.065918 
	C550.596130,672.829224 543.520569,671.397766 536.910645,674.858948 
	C522.445435,674.937866 507.826080,673.709900 493.550171,675.393860 
	C470.608032,678.100037 447.709747,678.194153 424.715576,678.218567 
	C415.462555,678.228394 406.121490,679.386230 396.982086,680.960022 
	C385.734467,682.896790 374.708191,681.883301 365.883667,675.231140 
	C350.057434,663.300781 332.287994,658.596130 313.169403,657.896301 
	C290.384766,657.062317 267.574677,656.911499 244.774460,656.534607 
	C242.796188,656.501953 240.773987,656.829773 238.831680,657.259216 
	C207.869431,664.103882 178.712799,657.641846 151.303497,643.559143 
	C140.715576,638.119202 131.637314,629.416504 122.590454,621.389771 
	C112.895157,612.787659 103.759979,603.498230 94.920021,594.006165 
	C87.985992,586.560547 83.040802,577.866821 79.379219,568.105957 
	C72.131805,548.786194 70.930038,529.037476 71.163437,508.692078 
	C71.306938,496.183838 69.105156,483.531006 66.815521,471.154144 
	C65.303291,462.979614 68.037163,456.837158 72.522514,450.821198 
	C73.144257,449.987274 74.471428,449.679352 75.805367,449.582764 
	C76.749893,452.730865 77.044273,455.566437 78.153198,458.036285 
	C78.515678,458.843597 80.997643,458.699249 82.510300,458.990143 
	C82.783638,455.381714 83.056984,451.773315 83.330322,448.164886 
	C90.260643,448.381073 97.190964,448.597290 104.717117,449.234619 
	C108.381752,450.927368 111.361046,452.525940 114.539742,453.396271 
	C119.673363,454.801910 124.938217,455.728302 130.147644,456.857086 
z"/>
<path fill="#DA9515" opacity="1.000000" stroke="none" 
	d="
M416.065643,539.792175 
	C415.600372,546.796570 417.995972,552.775024 423.572906,556.892395 
	C435.995056,566.063293 448.567444,575.043030 461.322937,583.742432 
	C464.969757,586.229614 469.685547,587.113037 473.471802,589.445190 
	C475.926544,590.957153 479.278992,593.798462 479.232300,595.979980 
	C479.146484,599.990906 475.539703,602.764343 471.282654,602.755188 
	C467.538300,602.747131 463.673798,602.145630 460.074677,601.085449 
	C446.525421,597.094482 433.160828,592.443054 419.525208,588.793091 
	C413.014099,587.050171 406.058594,586.911133 399.284027,586.256226 
	C397.921356,586.124573 396.291473,586.650818 395.082764,587.372803 
	C386.689301,592.385925 377.415405,593.314331 368.563995,590.553528 
	C359.856903,587.837769 351.134857,584.008118 345.770599,575.657410 
	C342.330231,570.301697 337.949371,566.794922 331.474823,564.919800 
	C327.730865,563.835571 323.636688,559.954590 322.047729,556.309082 
	C319.164948,549.695129 317.534363,542.395691 316.407562,535.221191 
	C315.919678,532.114929 317.435974,528.312195 319.037964,525.367737 
	C320.608368,522.481384 320.173767,520.634155 318.496246,518.197388 
	C313.133850,510.408142 308.198822,502.313416 302.594147,494.708527 
	C300.697662,492.135223 297.564270,489.697235 294.538055,488.867157 
	C281.429321,485.271332 267.949585,482.938049 254.997604,478.889008 
	C244.381744,475.570312 233.645721,477.270508 223.078644,475.875061 
	C211.074036,474.289764 199.170471,471.865021 187.279938,469.516846 
	C179.650833,468.010254 172.124588,465.982788 164.097809,463.746857 
	C165.729584,462.515228 167.815811,461.725555 170.315735,461.009277 
	C173.459351,461.224030 176.189285,461.365417 179.324905,461.656799 
	C184.510468,462.329651 189.290329,462.852478 194.416931,463.483215 
	C205.474167,465.405121 216.184662,467.219177 227.241058,469.001068 
	C228.037170,469.058624 228.487350,469.148346 229.327362,469.372711 
	C239.635895,469.504639 249.554611,469.501953 259.961487,469.415527 
	C271.919342,468.028748 283.417511,468.058319 294.727081,464.286072 
	C309.319000,459.418884 324.783325,459.343750 340.116150,459.867889 
	C339.924133,470.809784 339.057495,481.790710 339.688293,492.684967 
	C340.809631,512.050964 347.374146,529.960571 356.203766,547.608276 
	C355.645782,552.232910 359.811768,556.746704 365.058624,557.948730 
	C365.058624,557.948730 365.007172,557.992859 365.151825,558.167236 
	C365.502014,558.602722 365.747314,558.818665 366.032379,558.989441 
	C367.959076,560.801636 369.686310,562.935974 371.890167,564.300537 
	C373.135284,565.071533 375.463196,565.131897 376.730804,564.449158 
	C377.523438,564.022278 377.716919,561.485962 377.337219,560.132446 
	C376.865479,558.450745 375.863983,556.554565 374.502380,555.545959 
	C367.097107,550.060669 363.314453,542.125183 359.755676,533.676636 
	C359.645752,530.805176 359.732513,528.227783 358.774139,526.127380 
	C356.890533,521.998901 354.425934,518.135498 352.201721,514.162476 
	C352.026703,513.894958 351.851715,513.627380 351.533813,512.968994 
	C351.390900,512.578064 351.245148,512.495605 351.245148,512.495605 
	C351.145874,511.922821 351.046600,511.350037 350.661194,509.877258 
	C350.335480,508.502075 350.295898,508.026825 350.256348,507.551605 
	C349.744629,504.519653 349.232971,501.487671 348.913940,497.599365 
	C350.623230,487.557007 347.874725,477.786987 352.889771,469.068176 
	C353.109741,468.685699 352.923431,468.084229 352.980194,467.590973 
	C354.534790,454.088196 356.096436,440.586212 357.656891,427.084106 
	C360.454376,427.411285 363.251129,427.745117 366.049561,428.064026 
	C369.514557,428.458923 371.457764,426.657104 372.070374,423.480164 
	C372.657532,420.435364 370.948883,418.479523 368.080414,418.269226 
	C356.587097,417.426544 348.475586,410.007263 340.485809,403.235931 
	C333.971039,397.714600 326.956879,394.358765 318.951599,392.432709 
	C311.789337,390.709442 305.622253,387.344727 300.680023,381.820862 
	C292.837799,373.055664 291.595337,363.135498 296.095428,352.571106 
	C299.099243,345.519348 305.167877,342.170227 312.552582,341.180969 
	C321.630951,339.964813 329.671234,342.495850 336.798340,348.911743 
	C335.260193,350.369934 333.655304,351.184357 332.050415,351.998779 
	C331.275665,351.972778 330.500916,351.946808 329.195679,351.579468 
	C325.091522,348.267029 321.156708,348.473846 317.080872,349.921661 
	C312.951721,350.903564 308.822601,351.885468 304.075989,353.117218 
	C302.972046,354.218811 302.485626,355.070587 301.999207,355.922363 
	C302.654022,370.886108 313.961578,380.879700 328.550964,382.322876 
	C340.287109,383.483795 351.819305,387.184875 363.292236,390.308777 
	C368.373230,391.692261 373.073730,394.458862 377.966034,396.552979 
	C386.299591,400.120087 393.511780,411.007690 393.478149,419.576965 
	C393.472534,421.008514 394.623535,422.506409 395.418396,423.869690 
	C403.178894,437.180115 411.756561,450.086975 418.512360,463.886749 
	C423.690369,474.463562 423.653625,486.431061 421.621765,498.726990 
	C418.270294,501.434021 414.639679,503.063934 412.385559,505.819794 
	C409.593140,509.233826 407.618988,513.443604 405.866791,517.554871 
	C402.550995,525.334900 404.362000,531.366394 411.093567,536.469238 
	C412.679382,537.671326 414.404572,538.689392 416.065643,539.792175 
z"/>
<path fill="#D79919" opacity="1.000000" stroke="none" 
	d="
M632.047485,435.609497 
	C625.353577,425.510803 618.195862,415.680817 612.133240,405.216400 
	C608.262268,398.534821 605.927490,390.947876 603.052734,383.707794 
	C597.541870,369.828552 592.851257,355.562347 580.595886,345.568756 
	C574.338989,340.466553 569.274414,333.581421 562.451538,329.583069 
	C555.461609,325.486877 547.153198,323.104614 539.117737,321.445099 
	C524.351013,318.395325 509.432465,315.436829 494.439087,314.356110 
	C484.527161,313.641632 474.149200,315.311737 464.377655,317.607361 
	C445.969635,321.932007 427.854431,327.693115 411.912750,338.266327 
	C403.928711,343.561676 396.761963,350.102051 389.333649,356.210815 
	C387.983917,357.320770 387.157135,359.066711 385.998535,360.867065 
	C384.728333,360.941040 383.548492,360.667023 382.299500,359.875610 
	C385.454437,354.811096 388.678558,350.263947 391.902649,345.716797 
	C400.211060,336.158813 410.540161,329.254181 421.680023,323.560638 
	C445.910706,311.176392 471.727966,305.830383 499.595764,307.169006 
	C505.093536,308.760651 509.832184,310.207733 514.673889,311.087952 
	C533.623718,314.532867 552.880371,316.587341 569.268982,328.472412 
	C579.981018,336.240753 590.350830,343.983887 596.412354,356.273254 
	C598.345642,360.192871 601.442383,363.538574 604.006775,367.146881 
	C605.595154,371.482391 607.149536,375.830719 608.779602,380.150513 
	C611.442139,387.206543 614.153931,394.243988 616.937256,402.007996 
	C619.663696,407.510284 622.297913,412.293793 624.934692,417.447601 
	C627.676636,422.168213 630.476624,426.481995 633.125549,430.886749 
	C634.185608,432.649536 636.530457,434.990601 632.047485,435.609497 
z"/>
<path fill="#F1F5A3" opacity="1.000000" stroke="none" 
	d="
M631.785156,435.852692 
	C636.530457,434.990601 634.185608,432.649536 633.125549,430.886749 
	C630.476624,426.481995 627.676636,422.168213 625.183838,417.439575 
	C625.778870,417.101410 626.065369,416.987122 626.289795,416.718353 
	C632.627441,425.730011 638.965088,434.741699 645.365234,444.223633 
	C645.707458,444.976776 645.987244,445.259644 646.266968,445.542511 
	C646.950745,446.881287 647.634521,448.220062 648.345581,450.099609 
	C648.572266,450.891479 648.771667,451.142548 648.971069,451.393646 
	C649.157654,452.053894 649.344238,452.714142 649.507690,454.042542 
	C649.713135,455.232178 649.941772,455.753662 650.170410,456.275146 
	C650.309204,456.957825 650.448059,457.640503 650.501160,458.998779 
	C650.636963,460.208099 650.858459,460.741760 651.080017,461.275421 
	C651.079773,462.455322 651.079529,463.635254 650.997803,465.403259 
	C650.867432,466.228119 650.941101,466.407928 651.137329,466.530823 
	C651.624573,470.208557 652.111816,473.886292 652.482178,477.904694 
	C652.365295,478.245361 652.114075,478.384369 652.114075,478.384369 
	C652.114075,478.384369 652.169312,478.663757 652.041443,478.965454 
	C652.080322,480.032532 652.247070,480.797913 652.413818,481.563293 
	C652.387329,482.113556 652.360840,482.663788 652.094727,483.479431 
	C651.544373,483.812927 651.245850,483.916107 651.075928,483.612000 
	C651.141541,481.010071 651.072937,478.850769 651.043579,476.690918 
	C650.990417,472.786591 649.565002,471.302032 645.881470,473.716217 
	C637.878418,478.040161 631.035767,474.581787 624.668823,470.104309 
	C619.948730,466.784973 618.981689,461.174805 620.090271,456.161133 
	C621.786865,448.488342 623.770630,440.518829 631.785156,435.852692 
z"/>
<path fill="#F1F5A3" opacity="1.000000" stroke="none" 
	d="
M398.646088,381.948273 
	C400.069183,385.192291 400.642242,388.238617 397.487244,390.992767 
	C394.502533,393.598267 391.371155,393.246796 388.166199,391.827240 
	C375.544983,386.236847 363.265717,379.637207 350.229523,375.310272 
	C342.462555,372.732300 339.884766,368.066956 338.228455,360.843781 
	C337.947540,360.020660 337.779785,359.718506 337.612061,359.416321 
	C337.649628,358.832123 337.687195,358.247955 337.872437,356.880493 
	C339.648682,355.519684 341.277252,354.942169 342.905853,354.364655 
	C342.905853,354.364655 343.026855,354.335480 342.911865,354.742432 
	C343.591583,356.037567 344.386261,356.925690 345.322266,358.124054 
	C348.505341,360.704559 351.547089,362.974854 354.763489,365.498840 
	C355.679474,365.998688 356.420837,366.244904 357.438782,366.643738 
	C358.315887,366.985413 358.916412,367.174530 359.741333,367.620361 
	C361.023499,368.040131 362.081238,368.203186 363.484680,368.463623 
	C364.543091,368.630981 365.255798,368.700928 366.298645,368.953888 
	C371.477509,370.500061 376.326294,371.863220 381.509155,373.362762 
	C382.541534,373.681854 383.239838,373.864563 384.137695,374.330261 
	C385.232971,374.726196 386.128662,374.839142 387.391479,375.021149 
	C391.387787,377.376221 395.016937,379.662262 398.646088,381.948273 
z"/>
<path fill="#E3E193" opacity="1.000000" stroke="none" 
	d="
M536.588135,675.074585 
	C543.520569,671.397766 550.596130,672.829224 557.502258,673.065918 
	C572.336487,673.574097 585.311707,669.745850 596.000549,658.788147 
	C604.345276,650.233582 613.193237,642.151001 622.128723,634.208801 
	C623.791321,632.731018 626.931885,632.916199 629.752808,632.328979 
	C621.712097,641.238708 613.376099,650.218201 604.868347,659.031921 
	C601.993774,662.009766 598.575989,664.455505 595.592407,667.337036 
	C583.835144,678.691895 570.137573,682.053894 554.342468,678.013855 
	C548.405640,676.495422 542.274719,675.735229 536.229736,674.643555 
	C536.107910,674.621521 535.954712,674.773376 535.816162,674.844116 
	C535.966003,674.992798 536.115845,675.141479 536.588135,675.074585 
z"/>
<path fill="#CF9419" opacity="1.000000" stroke="none" 
	d="
M645.916626,474.199921 
	C649.565002,471.302032 650.990417,472.786591 651.043579,476.690918 
	C651.072937,478.850769 651.141541,481.010071 650.901733,483.972168 
	C651.040100,498.041931 649.171082,510.921967 644.126709,523.267090 
	C644.126709,523.267090 644.035217,523.678650 643.600037,523.936035 
	C642.815308,524.877502 642.465759,525.561584 642.116272,526.245605 
	C642.116272,526.245605 641.960144,526.679016 641.466248,526.899170 
	C639.942688,528.662109 638.912964,530.204895 637.883240,531.747681 
	C637.883240,531.747681 637.900513,531.886902 637.552002,531.996216 
	C636.810059,532.751587 636.416565,533.397583 636.023132,534.043640 
	C633.241028,536.961548 630.458862,539.879517 627.073242,542.962402 
	C625.956970,543.683777 625.444275,544.240112 624.931580,544.796448 
	C624.538696,545.180176 624.145752,545.563904 623.185181,546.049072 
	C622.066040,546.670593 621.514587,547.190674 620.963135,547.710754 
	C620.963135,547.710754 620.686340,548.031433 620.181519,548.090088 
	C619.101868,548.635864 618.527039,549.122925 617.952209,549.609985 
	C612.394165,552.466675 606.836182,555.323303 600.618164,558.202087 
	C599.287170,558.658386 598.616211,559.092590 597.945312,559.526733 
	C596.883545,560.064880 595.821838,560.602905 594.400879,561.166321 
	C594.750549,559.802979 595.098877,557.887268 596.228943,557.114441 
	C601.953979,553.199402 608.241516,550.036560 613.660461,545.759460 
	C623.444092,538.037415 632.585022,529.649780 637.955322,517.901611 
	C644.256348,504.117279 645.636475,489.522827 645.916626,474.199921 
z"/>
<path fill="#D4CD81" opacity="1.000000" stroke="none" 
	d="
M604.052734,366.813721 
	C601.442383,363.538574 598.345642,360.192871 596.412354,356.273254 
	C590.350830,343.983887 579.981018,336.240753 569.268982,328.472412 
	C552.880371,316.587341 533.623718,314.532867 514.673889,311.087952 
	C509.832184,310.207733 505.093536,308.760651 500.029541,307.311401 
	C522.216736,307.226379 543.555908,312.266510 564.094727,321.329834 
	C582.311462,329.368500 594.277100,343.265137 602.599792,360.799713 
	C603.425171,362.538727 603.614258,364.579742 604.052734,366.813721 
z"/>
<path fill="#DA9515" opacity="1.000000" stroke="none" 
	d="
M584.814941,301.653778 
	C585.144043,300.935760 585.473145,300.217743 586.303101,299.170532 
	C587.153503,298.135223 587.502991,297.429108 587.852417,296.722961 
	C588.786926,293.668091 589.721497,290.613220 591.257385,287.281738 
	C593.243225,288.656097 595.629578,290.186676 595.845032,291.978302 
	C597.004272,301.617981 597.182251,311.188843 589.653992,318.949585 
	C588.305969,320.339203 587.434875,322.191437 586.343567,323.830017 
	C585.691223,323.347015 585.038879,322.863983 584.116211,321.788269 
	C582.007690,320.264984 580.169434,319.334381 578.331177,318.403809 
	C577.743774,318.198883 577.156433,317.993958 576.195496,317.319977 
	C575.234253,315.615784 574.646545,314.380646 574.058777,313.145508 
	C576.239319,310.902740 578.419861,308.660004 581.220825,306.166443 
	C582.832397,304.494995 583.823669,303.074402 584.814941,301.653778 
z"/>
<path fill="#E2BD25" opacity="1.000000" stroke="none" 
	d="
M586.459595,324.096252 
	C587.434875,322.191437 588.305969,320.339203 589.653992,318.949585 
	C597.182251,311.188843 597.004272,301.617981 595.845032,291.978302 
	C595.629578,290.186676 593.243225,288.656097 591.494263,286.987457 
	C592.138184,284.415527 593.146606,281.861176 594.840210,279.123291 
	C600.345337,277.323212 605.165161,275.706604 609.985046,274.090027 
	C610.310669,274.068878 610.592163,274.170319 611.069702,274.849243 
	C611.788147,275.584137 612.266357,275.864197 612.744568,276.144226 
	C612.744568,276.144226 612.854736,276.143341 612.844971,276.530640 
	C612.851929,277.359344 612.868652,277.800720 612.482910,278.203949 
	C608.582397,277.289093 606.054016,278.656342 605.137024,281.983124 
	C603.613831,287.509674 602.384094,293.128693 601.370789,298.769867 
	C601.239746,299.499329 603.130859,300.592041 604.026855,301.853943 
	C600.474487,311.025665 596.980652,319.859955 593.422302,328.857269 
	C591.330933,327.679108 589.789368,326.810669 588.247864,325.942261 
	C587.690430,325.415649 587.132996,324.889038 586.459595,324.096252 
z"/>
<path fill="#E3E193" opacity="1.000000" stroke="none" 
	d="
M178.919205,461.506775 
	C176.189285,461.365417 173.459351,461.224030 169.997742,460.810364 
	C167.382416,460.385010 165.464294,459.973328 163.633713,460.217651 
	C162.984314,460.304291 162.547974,461.987518 162.014359,462.941895 
	C151.630722,460.981354 141.247101,459.020813 130.505554,456.958679 
	C124.938217,455.728302 119.673363,454.801910 114.539742,453.396271 
	C111.361046,452.525940 108.381752,450.927368 105.104698,449.375610 
	C116.029152,450.026001 127.161865,450.956512 138.934387,452.252014 
	C140.511871,452.694763 141.449570,452.772491 142.387253,452.850220 
	C142.769485,452.827637 143.151733,452.805054 143.915726,453.109772 
	C144.827057,453.440277 145.356644,453.443420 145.886215,453.446564 
	C150.983307,454.522095 156.080399,455.597595 161.788727,457.067017 
	C163.173355,457.507568 163.946777,457.554260 164.720184,457.600922 
	C165.319397,457.642792 165.918625,457.684631 166.910492,458.069946 
	C167.838715,458.388580 168.374298,458.363800 168.909882,458.338989 
	C170.075470,458.478577 171.241043,458.618195 172.860260,459.097748 
	C173.849045,459.399445 174.384186,459.361206 174.919342,459.322937 
	C176.004944,459.425171 177.090530,459.527374 178.521667,460.003479 
	C178.884537,460.753815 178.901871,461.130280 178.919205,461.506775 
z"/>
<path fill="#B68416" opacity="1.000000" stroke="none" 
	d="
M365.968506,368.770874 
	C365.255798,368.700928 364.543091,368.630981 363.273315,368.214691 
	C361.649811,367.700134 360.583405,367.531891 359.516968,367.363647 
	C358.916412,367.174530 358.315887,366.985413 357.280060,366.381287 
	C356.092804,365.725861 355.340820,365.485504 354.588837,365.245148 
	C351.547089,362.974854 348.505341,360.704559 345.429138,357.908203 
	C345.588043,356.942017 345.781464,356.501831 345.974854,356.061676 
	C354.214508,363.501831 364.423340,365.810150 374.937469,368.064362 
	C387.597687,370.778625 400.009735,374.638367 410.285370,383.279083 
	C411.442932,384.252411 413.886261,384.761658 415.148895,384.191620 
	C416.077332,383.772491 416.050995,381.238617 416.373657,379.268982 
	C419.114410,381.944977 418.961151,385.056946 415.368073,385.908783 
	C412.471161,386.595612 409.078430,385.838226 406.050476,385.115112 
	C403.734680,384.562042 401.645233,383.061157 399.050598,381.965057 
	C395.016937,379.662262 391.387787,377.376221 387.290283,374.737671 
	C385.860626,374.272522 384.899384,374.159882 383.938110,374.047272 
	C383.239838,373.864563 382.541534,373.681854 381.324585,373.107849 
	C375.860107,371.401337 370.914307,370.086121 365.968506,368.770874 
z"/>
<path fill="#D4CD81" opacity="1.000000" stroke="none" 
	d="
M340.260986,459.559387 
	C324.783325,459.343750 309.319000,459.418884 294.727081,464.286072 
	C283.417511,468.058319 271.919342,468.028748 259.683350,469.258789 
	C257.524445,468.932617 256.131897,468.679413 254.739334,468.426208 
	C278.614716,464.425293 302.484924,460.393005 326.371094,456.457336 
	C329.964844,455.865173 333.634674,455.740936 337.266266,455.370361 
	C340.325378,455.058197 341.156281,456.503723 340.260986,459.559387 
z"/>
<path fill="#D4CD81" opacity="1.000000" stroke="none" 
	d="
M357.441132,426.890533 
	C356.096436,440.586212 354.534790,454.088196 352.980194,467.590973 
	C352.923431,468.084229 353.109741,468.685699 352.889771,469.068176 
	C347.874725,477.786987 350.623230,487.557007 349.048645,497.099670 
	C348.956696,493.831024 348.822327,490.203369 348.906982,486.580872 
	C349.193481,474.322083 349.246307,462.045837 350.003601,449.814362 
	C350.492310,441.921143 352.057220,434.094574 353.217285,425.675964 
	C354.850128,426.091919 356.037750,426.394440 357.441132,426.890533 
z"/>
<path fill="#D4CD81" opacity="1.000000" stroke="none" 
	d="
M668.528198,580.699951 
	C667.655884,578.861694 666.642212,576.844055 666.442688,574.748840 
	C665.388855,563.683655 658.821594,556.302979 649.918335,549.691956 
	C644.075500,544.206238 644.067749,544.139526 648.459534,540.871338 
	C658.492004,549.377441 668.607422,557.894531 670.021301,572.227966 
	C670.286072,574.912720 669.216370,577.729126 668.528198,580.699951 
z"/>
<path fill="#B68416" opacity="1.000000" stroke="none" 
	d="
M588.298523,326.263000 
	C589.789368,326.810669 591.330933,327.679108 593.422302,328.857269 
	C596.980652,319.859955 600.474487,311.025665 604.378540,301.736572 
	C606.775391,299.442322 609.253967,297.906250 610.623291,295.686035 
	C612.307495,292.955383 613.066528,289.654114 614.375977,286.306610 
	C614.574829,284.098511 614.623108,282.183258 614.795166,280.165588 
	C614.918823,280.063202 615.165405,279.857513 615.165405,279.857513 
	C614.552307,284.337585 614.827087,289.183716 613.159241,293.228851 
	C608.240662,305.157623 602.573975,316.779053 597.136414,328.491211 
	C596.527283,329.803223 595.509583,330.925537 594.150818,332.910980 
	C591.999451,330.564667 590.174316,328.574219 588.298523,326.263000 
z"/>
<path fill="#2F301C" opacity="1.000000" stroke="none" 
	d="
M236.871445,461.114868 
	C230.656006,460.577606 224.376236,460.428864 218.240021,459.413055 
	C208.764328,457.844421 199.386826,455.682617 189.967682,453.772430 
	C190.023331,453.335571 190.078995,452.898712 190.134659,452.461853 
	C205.322372,454.635101 220.510071,456.808350 236.088058,459.339355 
	C236.609375,460.169678 236.740417,460.642242 236.871445,461.114868 
z"/>
<path fill="#E3E193" opacity="1.000000" stroke="none" 
	d="
M82.983673,448.118774 
	C83.056984,451.773315 82.783638,455.381714 82.510300,458.990143 
	C80.997643,458.699249 78.515678,458.843597 78.153198,458.036285 
	C77.044273,455.566437 76.749893,452.730865 76.164230,449.632019 
	C78.338875,448.841888 80.487953,448.457275 82.983673,448.118774 
z"/>
<path fill="#B68416" opacity="1.000000" stroke="none" 
	d="
M226.895142,469.033234 
	C216.184662,467.219177 205.474167,465.405121 194.703125,463.348328 
	C195.456589,462.866211 196.270599,462.626862 197.084610,462.387543 
	C205.898026,463.942474 214.711441,465.497406 224.169556,467.089355 
	C225.507874,467.761993 226.201508,468.397614 226.895142,469.033234 
z"/>
<path fill="#B68416" opacity="1.000000" stroke="none" 
	d="
M648.299316,540.569153 
	C644.067749,544.139526 644.075500,544.206238 649.589966,549.551758 
	C649.399780,549.815002 649.056396,549.826416 648.457397,549.829895 
	C647.528931,549.343384 646.704895,548.985962 646.207947,548.366272 
	C643.231689,544.654724 640.108459,544.171753 636.583740,547.637512 
	C636.027771,548.184143 635.137451,548.390686 634.039978,548.754028 
	C636.688354,545.801758 639.498840,542.588867 642.822876,540.047729 
	C643.906067,539.219666 646.328918,540.144043 648.299316,540.569153 
z"/>
<path fill="#B68416" opacity="1.000000" stroke="none" 
	d="
M644.421265,523.092773 
	C649.171082,510.921967 651.040100,498.041931 650.785278,484.414551 
	C651.245850,483.916107 651.544373,483.812927 652.047424,483.889954 
	C652.374817,484.618713 652.509766,485.202271 652.195923,486.294495 
	C651.835083,489.745392 651.923096,492.687714 652.011108,495.630005 
	C649.579407,504.726135 647.147644,513.822327 644.421265,523.092773 
z"/>
<path fill="#D4CD81" opacity="1.000000" stroke="none" 
	d="
M391.546448,345.761078 
	C388.678558,350.263947 385.454437,354.811096 382.024811,359.629761 
	C380.644653,359.643707 379.470001,359.386169 376.998627,358.844299 
	C382.339630,353.937103 386.764954,349.871246 391.546448,345.761078 
z"/>
<path fill="#CF9419" opacity="1.000000" stroke="none" 
	d="
M609.790039,273.800659 
	C605.165161,275.706604 600.345337,277.323212 595.102356,278.908630 
	C598.705261,271.419647 602.726562,269.972900 609.790039,273.800659 
z"/>
<path fill="#D4CD81" opacity="1.000000" stroke="none" 
	d="
M352.191803,514.545959 
	C354.425934,518.135498 356.890533,521.998901 358.774139,526.127380 
	C359.732513,528.227783 359.645752,530.805176 359.686829,533.259521 
	C356.955444,527.211243 354.568665,521.070374 352.191803,514.545959 
z"/>
<path fill="#2F301C" opacity="1.000000" stroke="none" 
	d="
M299.247375,452.092712 
	C301.837341,451.916718 304.053558,451.791656 306.269775,451.666565 
	C306.338165,452.185211 306.406555,452.703857 306.474945,453.222504 
	C300.604034,454.406738 294.733154,455.590942 288.862244,456.775177 
	C288.707458,456.158386 288.552643,455.541626 288.397827,454.924866 
	C291.889771,453.997772 295.381714,453.070709 299.247375,452.092712 
z"/>
<path fill="#D4CD81" opacity="1.000000" stroke="none" 
	d="
M196.686279,462.281128 
	C196.270599,462.626862 195.456589,462.866211 194.356384,463.240417 
	C189.290329,462.852478 184.510468,462.329651 179.324905,461.656799 
	C178.901871,461.130280 178.884537,460.753815 178.889847,460.187958 
	C184.704300,460.723969 190.496124,461.449371 196.686279,462.281128 
z"/>
<path fill="#CF9419" opacity="1.000000" stroke="none" 
	d="
M342.935638,354.006409 
	C341.277252,354.942169 339.648682,355.519684 337.755310,356.454712 
	C335.740356,355.414368 333.990173,354.016571 332.145203,352.308777 
	C333.655304,351.184357 335.260193,350.369934 336.963379,349.203278 
	C339.029633,350.450073 340.997528,352.049133 342.935638,354.006409 
z"/>
<path fill="#B68416" opacity="1.000000" stroke="none" 
	d="
M626.268433,416.416687 
	C626.065369,416.987122 625.778870,417.101410 625.181274,417.069275 
	C622.297913,412.293793 619.663696,407.510284 617.035339,402.353699 
	C620.109802,406.692139 623.178467,411.403595 626.268433,416.416687 
z"/>
<path fill="#B68416" opacity="1.000000" stroke="none" 
	d="
M623.682617,555.212402 
	C617.424683,558.676270 610.810425,562.154907 603.811035,565.570190 
	C610.059326,562.080200 616.692810,558.653687 623.682617,555.212402 
z"/>
<path fill="#B68416" opacity="1.000000" stroke="none" 
	d="
M237.254150,461.106873 
	C236.740417,460.642242 236.609375,460.169678 236.457153,459.451202 
	C240.517838,459.188019 244.599701,459.170746 249.159729,459.431671 
	C249.666473,460.124756 249.695068,460.539673 249.723663,460.954559 
	C245.694733,461.002655 241.665787,461.050751 237.254150,461.106873 
z"/>
<path fill="#CF9419" opacity="1.000000" stroke="none" 
	d="
M364.937927,557.634644 
	C359.811768,556.746704 355.645782,552.232910 356.309967,547.954956 
	C359.317810,550.920166 362.067505,554.120422 364.937927,557.634644 
z"/>
<path fill="#B68416" opacity="1.000000" stroke="none" 
	d="
M254.300751,468.302979 
	C256.131897,468.679413 257.524445,468.932617 259.195190,469.342560 
	C249.554611,469.501953 239.635895,469.504639 229.785919,469.238647 
	C232.094528,468.514618 234.337906,467.664978 236.573547,467.684845 
	C241.426483,467.727966 246.275452,468.215424 251.126053,468.521149 
	C252.038086,468.407349 252.950119,468.293549 254.300751,468.302979 
z"/>
<path fill="#D4CD81" opacity="1.000000" stroke="none" 
	d="
M250.750931,468.598511 
	C246.275452,468.215424 241.426483,467.727966 236.573547,467.684845 
	C234.337906,467.664978 232.094528,468.514618 229.396088,469.104004 
	C228.487350,469.148346 228.037170,469.058624 227.241058,469.001068 
	C226.201508,468.397614 225.507874,467.761993 224.552582,467.258667 
	C232.985870,467.819275 241.680847,468.247589 250.750931,468.598511 
z"/>
<path fill="#B68416" opacity="1.000000" stroke="none" 
	d="
M600.719360,566.497864 
	C598.937195,567.111206 596.765503,567.719604 594.117615,567.899780 
	C592.739746,566.290344 591.838013,565.109192 590.936340,563.927979 
	C591.606201,563.238953 592.276001,562.549927 593.241699,561.832336 
	C593.262451,566.898376 594.269104,567.593384 600.719360,566.497864 
z"/>
<path fill="#B68416" opacity="1.000000" stroke="none" 
	d="
M395.651978,365.770599 
	C399.565643,367.399933 403.705780,369.282104 407.941467,371.481689 
	C403.984161,369.873901 399.931305,367.948669 395.651978,365.770599 
z"/>
<path fill="#B68416" opacity="1.000000" stroke="none" 
	d="
M632.714172,549.280151 
	C630.522522,551.101624 627.996704,552.969910 625.107605,554.820435 
	C627.289551,552.977356 629.834778,551.152161 632.714172,549.280151 
z"/>
<path fill="#2F301C" opacity="1.000000" stroke="none" 
	d="
M250.021622,461.151550 
	C249.695068,460.539673 249.666473,460.124756 249.593445,459.398682 
	C251.371979,459.199341 253.194992,459.311157 255.017990,459.423004 
	C255.026566,459.941193 255.035156,460.459381 255.043732,460.977600 
	C253.469009,461.101227 251.894302,461.224884 250.021622,461.151550 
z"/>
<path fill="#B68416" opacity="1.000000" stroke="none" 
	d="
M573.778137,313.207275 
	C574.646545,314.380646 575.234253,315.615784 575.952881,317.120605 
	C574.664612,316.366180 569.312927,317.809967 573.778137,313.207275 
z"/>
<path fill="#CF9419" opacity="1.000000" stroke="none" 
	d="
M652.128296,495.289673 
	C651.923096,492.687714 651.835083,489.745392 652.045349,486.583527 
	C652.310913,489.225739 652.278198,492.087524 652.128296,495.289673 
z"/>
<path fill="#B68416" opacity="1.000000" stroke="none" 
	d="
M638.172363,531.629395 
	C638.912964,530.204895 639.942688,528.662109 641.278137,527.031982 
	C640.543091,528.466919 639.502319,529.989014 638.172363,531.629395 
z"/>
<path fill="#B68416" opacity="1.000000" stroke="none" 
	d="
M578.542053,318.667450 
	C580.169434,319.334381 582.007690,320.264984 583.951843,321.524536 
	C582.289490,320.879395 580.521179,319.905243 578.542053,318.667450 
z"/>
<path fill="#B68416" opacity="1.000000" stroke="none" 
	d="
M408.818817,372.535889 
	C410.110840,373.209869 411.530792,374.179077 413.008484,375.482727 
	C411.693054,374.821808 410.319885,373.826508 408.818817,372.535889 
z"/>
<path fill="#B68416" opacity="1.000000" stroke="none" 
	d="
M584.532593,301.815369 
	C583.823669,303.074402 582.832397,304.494995 581.507141,305.991150 
	C582.198853,304.703461 583.224548,303.340240 584.532593,301.815369 
z"/>
<path fill="#CF9419" opacity="1.000000" stroke="none" 
	d="
M345.761047,355.772614 
	C345.781464,356.501831 345.588043,356.942017 345.287781,357.598022 
	C344.386261,356.925690 343.591583,356.037567 342.937927,354.798950 
	C343.901703,354.793518 344.724457,355.138519 345.761047,355.772614 
z"/>
<path fill="#B68416" opacity="1.000000" stroke="none" 
	d="
M651.244751,461.219269 
	C650.858459,460.741760 650.636963,460.208099 650.582642,459.514893 
	C650.969666,459.957977 651.189575,460.560547 651.244751,461.219269 
z"/>
<path fill="#B68416" opacity="1.000000" stroke="none" 
	d="
M650.331787,456.211060 
	C649.941772,455.753662 649.713135,455.232178 649.634399,454.541321 
	C650.020508,454.963623 650.256897,455.555328 650.331787,456.211060 
z"/>
<path fill="#B68416" opacity="1.000000" stroke="none" 
	d="
M621.253174,547.675415 
	C621.514587,547.190674 622.066040,546.670593 622.917358,546.127686 
	C622.659241,546.616638 622.101196,547.128357 621.253174,547.675415 
z"/>
<path fill="#B68416" opacity="1.000000" stroke="none" 
	d="
M646.388184,445.417816 
	C645.987244,445.259644 645.707458,444.976776 645.551941,444.573242 
	C645.953857,444.732727 646.231628,445.012909 646.388184,445.417816 
z"/>
<path fill="#B68416" opacity="1.000000" stroke="none" 
	d="
M649.123474,451.390564 
	C648.771667,451.142548 648.572266,450.891479 648.511169,450.519592 
	C648.858276,450.728394 649.067078,451.057953 649.123474,451.390564 
z"/>
<path fill="#D4CD81" opacity="1.000000" stroke="none" 
	d="
M145.760651,453.276672 
	C145.356644,453.443420 144.827057,453.440277 144.166046,453.261078 
	C144.568100,453.092316 145.101578,453.099579 145.760651,453.276672 
z"/>
<path fill="#B68416" opacity="1.000000" stroke="none" 
	d="
M598.249084,559.523071 
	C598.616211,559.092590 599.287170,558.658386 600.277649,558.252502 
	C599.915710,558.693665 599.234314,559.106506 598.249084,559.523071 
z"/>
<path fill="#D4CD81" opacity="1.000000" stroke="none" 
	d="
M164.497131,457.401276 
	C163.946777,457.554260 163.173355,457.507568 162.174683,457.260376 
	C162.724289,457.107117 163.499191,457.154388 164.497131,457.401276 
z"/>
<path fill="#D4CD81" opacity="1.000000" stroke="none" 
	d="
M168.779175,458.173706 
	C168.374298,458.363800 167.838715,458.388580 167.167542,458.234802 
	C167.570801,458.040283 168.109619,458.024353 168.779175,458.173706 
z"/>
<path fill="#B68416" opacity="1.000000" stroke="none" 
	d="
M618.241455,549.588745 
	C618.527039,549.122925 619.101868,548.635864 619.975586,548.139526 
	C619.693237,548.609375 619.112000,549.088440 618.241455,549.588745 
z"/>
<path fill="#D4CD81" opacity="1.000000" stroke="none" 
	d="
M174.777130,459.165100 
	C174.384186,459.361206 173.849045,459.399445 173.175735,459.261536 
	C173.570023,459.059357 174.102478,459.033295 174.777130,459.165100 
z"/>
<path fill="#B68416" opacity="1.000000" stroke="none" 
	d="
M587.582275,296.861145 
	C587.502991,297.429108 587.153503,298.135223 586.518005,298.962524 
	C586.592041,298.388916 586.952087,297.694153 587.582275,296.861145 
z"/>
<path fill="#B68416" opacity="1.000000" stroke="none" 
	d="
M625.221924,544.750916 
	C625.444275,544.240112 625.956970,543.683777 626.763428,543.079224 
	C626.542236,543.589111 626.027222,544.147278 625.221924,544.750916 
z"/>
<path fill="#D79919" opacity="1.000000" stroke="none" 
	d="
M386.514832,361.641449 
	C387.110107,361.612885 387.899323,361.822876 388.843994,362.314209 
	C388.235901,362.357025 387.472382,362.118530 386.514832,361.641449 
z"/>
<path fill="#B68416" opacity="1.000000" stroke="none" 
	d="
M636.300110,533.943237 
	C636.416565,533.397583 636.810059,532.751587 637.482178,532.003052 
	C637.366272,532.548035 636.971680,533.195435 636.300110,533.943237 
z"/>
<path fill="#CF9419" opacity="1.000000" stroke="none" 
	d="
M651.201172,466.608276 
	C650.941101,466.407928 650.867432,466.228119 651.012756,465.994476 
	C651.109131,465.997559 651.389099,466.236847 651.389099,466.236847 
	C651.389099,466.236847 651.264893,466.685730 651.201172,466.608276 
z"/>
<path fill="#B68416" opacity="1.000000" stroke="none" 
	d="
M642.390076,526.125244 
	C642.465759,525.561584 642.815308,524.877502 643.445312,524.079346 
	C643.371826,524.645081 643.017883,525.324951 642.390076,526.125244 
z"/>
<path fill="#D4CD81" opacity="1.000000" stroke="none" 
	d="
M350.206360,507.692017 
	C350.295898,508.026825 350.335480,508.502075 350.497070,509.020874 
	C350.464844,508.653748 350.310577,508.243103 350.206360,507.692017 
z"/>
<path fill="#D4CD81" opacity="1.000000" stroke="none" 
	d="
M351.325684,512.398315 
	C351.245148,512.495605 351.390900,512.578064 351.370117,512.518188 
	C351.368286,512.405884 351.387238,512.353455 351.325684,512.398315 
z"/>
<path fill="#B68416" opacity="1.000000" stroke="none" 
	d="
M652.625732,481.282562 
	C652.247070,480.797913 652.080322,480.032532 652.168030,479.025024 
	C652.422485,478.782898 652.690186,478.861481 652.690186,478.861481 
	C652.739319,479.574921 652.788452,480.288391 652.625732,481.282562 
z"/>
<path fill="#D4CD81" opacity="1.000000" stroke="none" 
	d="
M142.094009,452.643250 
	C141.449570,452.772491 140.511871,452.694763 139.282623,452.409454 
	C139.927628,452.279999 140.864197,452.358154 142.094009,452.643250 
z"/>
<path fill="#B68416" opacity="1.000000" stroke="none" 
	d="
M612.885376,278.242096 
	C612.868652,277.800720 612.851929,277.359344 612.844238,276.585724 
	C613.274292,276.568848 613.695312,276.884216 613.997253,277.658722 
	C613.741394,278.250000 613.604553,278.382141 613.304688,278.483643 
	C613.141602,278.453003 612.885376,278.242096 612.885376,278.242096 
z"/>
<path fill="#B68416" opacity="1.000000" stroke="none" 
	d="
M612.659729,275.864990 
	C612.266357,275.864197 611.788147,275.584137 611.202942,275.036255 
	C611.588928,275.040863 612.081909,275.313293 612.659729,275.864990 
z"/>
<path fill="#B68416" opacity="1.000000" stroke="none" 
	d="
M614.083313,277.919495 
	C614.574646,278.233093 614.860779,278.744995 615.156128,279.557220 
	C615.165405,279.857513 614.918823,280.063202 614.674072,280.097961 
	C614.429321,280.132690 614.153320,280.097809 614.009155,279.846802 
	C613.732666,279.235260 613.600220,278.874756 613.467773,278.514282 
	C613.604553,278.382141 613.741394,278.250000 614.083313,277.919495 
z"/>
<path fill="#CF9419" opacity="1.000000" stroke="none" 
	d="
M652.734619,478.727386 
	C652.690186,478.861481 652.422485,478.782898 652.295898,478.723328 
	C652.169312,478.663757 652.114075,478.384369 652.114075,478.384369 
	C652.114075,478.384369 652.365295,478.245361 652.436707,478.379303 
	C652.508118,478.513245 652.779053,478.593292 652.734619,478.727386 
z"/>
<path fill="#CF9419" opacity="1.000000" stroke="none" 
	d="
M365.962219,558.735718 
	C365.747314,558.818665 365.502014,558.602722 365.162109,558.135010 
	C365.315857,558.112793 365.603943,558.297363 365.962219,558.735718 
z"/>
<path fill="#F3F7A5" opacity="1.000000" stroke="none" 
	d="
M416.476562,539.816406 
	C414.404572,538.689392 412.679382,537.671326 411.093567,536.469238 
	C404.362000,531.366394 402.550995,525.334900 405.866791,517.554871 
	C407.618988,513.443604 409.593140,509.233826 412.385559,505.819794 
	C414.639679,503.063934 418.270294,501.434021 421.626160,499.172363 
	C424.604767,499.297363 427.249146,499.538361 429.889801,499.814880 
	C438.125549,500.677277 441.984497,504.191498 443.692596,512.360779 
	C447.194397,529.108704 433.653046,542.990906 416.476562,539.816406 
z"/>
<path fill="#F3F7A5" opacity="1.000000" stroke="none" 
	d="
M560.361450,346.596619 
	C563.648621,351.097260 566.551514,355.450562 569.676208,359.638336 
	C571.799438,362.483887 573.903381,365.507446 576.622803,367.697937 
	C579.273071,369.832672 579.745239,371.885590 577.355286,373.758240 
	C573.595093,376.704529 569.446777,379.190796 565.284180,381.557617 
	C564.479553,382.015076 562.625488,381.353668 561.648560,380.657104 
	C557.066101,377.389923 552.459167,374.121124 548.171021,370.486938 
	C543.628235,366.636871 539.472717,362.333282 535.075867,358.306488 
	C532.318054,355.780701 533.528625,349.610657 537.514282,346.388397 
	C544.006470,341.139740 552.570679,341.136078 560.361450,346.596619 
z"/>
<path fill="#060401" opacity="1.000000" stroke="none" 
	d="
M472.081055,476.037811 
	C471.952911,480.155884 471.505554,483.227478 466.711182,483.964020 
	C462.026794,484.683655 457.864594,485.538910 455.274628,480.163635 
	C449.007477,467.156433 445.942261,453.949677 452.072418,439.977112 
	C453.261688,437.266357 458.177673,435.692230 460.595551,437.874908 
	C463.453369,440.454803 466.260559,443.484436 467.953583,446.884796 
	C472.445190,455.906036 472.842560,465.719727 472.081055,476.037811 
z"/>
<path fill="#060401" opacity="1.000000" stroke="none" 
	d="
M578.926636,440.862122 
	C577.835571,432.768921 576.709351,425.053711 576.023987,417.299530 
	C575.847168,415.298035 576.483521,412.668427 577.760803,411.225128 
	C579.675964,409.061005 582.296509,406.752655 584.964050,406.209412 
	C588.625549,405.463745 590.878296,408.744995 591.287903,411.974945 
	C592.473694,421.325867 593.544922,430.733154 593.744751,440.137787 
	C593.794312,442.471252 590.768860,446.296753 588.459778,446.942200 
	C584.277710,448.111145 580.952271,445.229645 578.926636,440.862122 
z"/>
<path fill="#060401" opacity="1.000000" stroke="none" 
	d="
M571.004028,514.981689 
	C553.102234,525.060303 534.179993,526.912964 514.551208,524.447083 
	C513.405334,524.303162 511.980103,524.244446 511.235382,523.553101 
	C510.152435,522.547791 508.807465,520.880249 508.993378,519.723022 
	C509.172791,518.606079 511.030212,517.285278 512.372437,516.954285 
	C513.882446,516.581970 515.640930,517.216003 517.291138,517.413757 
	C533.546021,519.361511 549.252319,517.262451 564.039490,510.204956 
	C567.783752,508.417938 570.949158,505.187958 573.975769,502.209656 
	C575.942444,500.274414 578.007324,498.225922 580.141724,500.478058 
	C581.262756,501.660980 581.246948,505.494659 580.155762,506.879242 
	C577.743530,509.940186 574.326050,512.208984 571.004028,514.981689 
z"/>
<path fill="#F1F5A3" opacity="1.000000" stroke="none" 
	d="
M509.507568,364.235718 
	C511.415283,362.338654 513.718018,359.214722 514.992432,359.589294 
	C517.560059,360.344055 519.567932,363.002930 521.806763,364.876221 
	C520.041992,366.718811 518.538269,369.672180 516.455505,370.161652 
	C512.679932,371.048950 509.815613,368.939331 509.507568,364.235718 
z"/>
<path fill="#E3E193" opacity="1.000000" stroke="none" 
	d="
M283.743042,623.017334 
	C278.681458,628.421692 276.549072,628.731323 270.328705,625.380676 
	C268.606842,624.453186 266.657654,623.947815 264.506531,623.080200 
	C270.559052,622.947266 276.917786,622.983032 283.743042,623.017334 
z"/>
<path fill="#D79919" opacity="1.000000" stroke="none" 
	d="
M142.627426,499.319153 
	C139.799713,502.070770 136.926956,501.148346 134.071243,499.652313 
	C134.105698,499.104614 134.140167,498.556946 134.174637,498.009277 
	C136.943665,498.351349 139.712708,498.693420 142.627426,499.319153 
z"/>
<path fill="#D79919" opacity="1.000000" stroke="none" 
	d="
M165.783997,517.001465 
	C162.580139,517.119202 162.169357,515.236755 165.357422,510.606781 
	C165.530762,512.624634 165.704086,514.642517 165.783997,517.001465 
z"/>
<path fill="#CF9419" opacity="1.000000" stroke="none" 
	d="
M317.403870,350.146667 
	C321.156708,348.473846 325.091522,348.267029 328.808960,351.552490 
	C325.210785,351.368500 321.468842,350.870117 317.403870,350.146667 
z"/>
<path fill="#D4CD81" opacity="1.000000" stroke="none" 
	d="
M162.180084,463.155457 
	C162.547974,461.987518 162.984314,460.304291 163.633713,460.217651 
	C165.464294,459.973328 167.382416,460.385010 169.584045,460.737000 
	C167.815811,461.725555 165.729584,462.515228 163.743927,463.612457 
	C163.344925,463.736359 162.845383,463.552704 162.180084,463.155457 
z"/>
<path fill="#CF9419" opacity="1.000000" stroke="none" 
	d="
M590.673462,564.043701 
	C591.838013,565.109192 592.739746,566.290344 593.815308,567.734314 
	C592.031189,567.431396 588.890991,567.968079 590.673462,564.043701 
z"/>
<path fill="#CF9419" opacity="1.000000" stroke="none" 
	d="
M302.302368,355.821594 
	C302.485626,355.070587 302.972046,354.218811 303.704163,353.191101 
	C303.501709,353.917053 303.053619,354.818939 302.302368,355.821594 
z"/>
<path fill="#CF9419" opacity="1.000000" stroke="none" 
	d="
M337.591858,359.528107 
	C337.779785,359.718506 337.947540,360.020660 337.993805,360.469330 
	C337.772064,360.290527 337.671844,359.965210 337.591858,359.528107 
z"/>
<path fill="#E2BD25" opacity="1.000000" stroke="none" 
	d="
M366.298645,368.953918 
	C370.914307,370.086121 375.860107,371.401337 380.990479,372.971466 
	C376.326294,371.863220 371.477509,370.500061 366.298645,368.953918 
z"/>
<path fill="#E2BD25" opacity="1.000000" stroke="none" 
	d="
M359.741333,367.620361 
	C360.583405,367.531891 361.649811,367.700134 362.927612,368.117310 
	C362.081238,368.203186 361.023499,368.040131 359.741333,367.620361 
z"/>
<path fill="#E2BD25" opacity="1.000000" stroke="none" 
	d="
M384.137695,374.330261 
	C384.899384,374.159882 385.860626,374.272522 386.923126,374.668610 
	C386.128662,374.839142 385.232971,374.726196 384.137695,374.330261 
z"/>
<path fill="#E2BD25" opacity="1.000000" stroke="none" 
	d="
M354.763489,365.498840 
	C355.340820,365.485504 356.092804,365.725861 357.003479,366.228668 
	C356.420837,366.244904 355.679474,365.998688 354.763489,365.498840 
z"/>
<path fill="#F1F5A3" opacity="1.000000" stroke="none" 
	d="
M613.304688,278.483643 
	C613.600220,278.874756 613.732666,279.235260 613.982422,280.258667 
	C614.141724,282.814178 614.183594,284.706848 614.225464,286.599487 
	C613.066528,289.654114 612.307495,292.955383 610.623291,295.686035 
	C609.253967,297.906250 606.775391,299.442322 604.437012,301.399139 
	C603.130859,300.592041 601.239746,299.499329 601.370789,298.769867 
	C602.384094,293.128693 603.613831,287.509674 605.137024,281.983124 
	C606.054016,278.656342 608.582397,277.289093 612.482910,278.203949 
	C612.885376,278.242096 613.141602,278.453003 613.304688,278.483643 
z"/>
<path fill="#E2BD25" opacity="1.000000" stroke="none" 
	d="
M614.375977,286.306641 
	C614.183594,284.706848 614.141724,282.814178 614.126587,280.509674 
	C614.153320,280.097809 614.429321,280.132690 614.550415,280.200348 
	C614.623108,282.183258 614.574829,284.098511 614.375977,286.306641 
z"/>
</svg>